<?xml version="1.0" standalone="no"?>
<!DOCTYPE svg PUBLIC "-//W3C//DTD SVG 20010904//EN"
 "http://www.w3.org/TR/2001/REC-SVG-20010904/DTD/svg10.dtd">
<svg version="1.0" xmlns="http://www.w3.org/2000/svg"
 width="700.000000pt" height="700.000000pt" viewBox="0 0 700.000000 700.000000"
 preserveAspectRatio="xMidYMid meet">
<metadata>
Created by potrace 1.11, written by Peter Selinger 2001-2013
</metadata>
<g transform="translate(0.000000,700.000000) scale(0.100000,-0.100000)"
fill="#000000" stroke="none">
<path d="M3159 6996 c-2 -2 -40 -7 -84 -10 -331 -28 -685 -117 -1010 -254
-117 -49 -342 -162 -387 -193 -14 -11 -28 -19 -31 -19 -17 0 -342 -227 -393
-275 -6 -5 -35 -30 -65 -55 -100 -84 -176 -158 -331 -321 -52 -55 -210 -259
-277 -359 -324 -481 -511 -1006 -568 -1595 -15 -153 -8 -597 11 -702 2 -10 7
-45 12 -78 4 -33 8 -62 9 -65 0 -3 5 -27 9 -55 4 -27 17 -88 28 -135 11 -47
21 -92 23 -100 20 -95 97 -324 160 -475 32 -78 158 -332 185 -375 6 -8 29 -47
52 -85 158 -259 397 -545 633 -756 224 -201 508 -388 795 -527 192 -92 537
-214 673 -237 18 -3 48 -10 67 -15 19 -5 52 -11 74 -14 21 -4 41 -8 45 -10 3
-2 30 -7 60 -11 30 -4 61 -8 70 -10 9 -1 41 -5 71 -9 30 -3 80 -8 110 -12 194
-22 591 -5 840 36 169 28 471 104 555 140 11 5 81 32 155 61 74 29 191 82 260
118 69 35 135 69 147 75 13 6 23 14 23 19 0 4 5 7 11 7 17 0 282 178 374 250
175 138 386 342 510 494 22 27 47 57 55 66 8 10 22 27 30 37 8 10 48 64 88
121 351 499 560 1079 609 1687 13 167 6 539 -12 648 -2 12 -6 44 -10 72 -23
208 -132 625 -210 800 -123 278 -189 405 -302 579 -62 96 -204 290 -227 311
-6 6 -29 33 -51 60 -63 79 -280 293 -393 387 -135 112 -277 214 -432 308 -195
120 -510 261 -725 325 -49 14 -101 30 -115 35 -14 5 -38 12 -55 16 -16 4 -34
8 -40 10 -37 9 -216 44 -255 50 -19 2 -44 7 -55 9 -11 2 -47 7 -80 10 -33 4
-76 9 -95 12 -38 5 -536 14 -541 9z m391 -240 c25 -4 52 -9 60 -11 8 -2 31 -7
50 -10 90 -15 297 -99 427 -173 136 -79 394 -313 514 -467 74 -95 129 -173
129 -184 0 -11 -177 -86 -320 -136 -156 -54 -386 -112 -517 -130 -21 -3 -47
-7 -58 -10 -169 -34 -612 -40 -825 -10 -19 2 -55 7 -80 10 -25 3 -52 8 -60 10
-8 2 -34 7 -57 10 -90 13 -406 97 -468 125 -11 5 -40 16 -65 24 -55 17 -232
94 -242 104 -16 16 184 266 317 395 231 225 523 392 754 432 19 3 37 8 41 10
3 2 37 7 75 10 39 4 71 8 73 10 5 5 205 -3 252 -9z m-1351 -279 c-105 -103
-158 -160 -209 -227 -19 -25 -37 -47 -40 -50 -10 -9 -119 -163 -123 -174 -4
-11 -29 3 -175 97 l-92 59 42 31 c75 54 249 156 373 217 99 49 297 137 314
139 3 1 -38 -41 -90 -92z m2458 17 c110 -49 273 -133 351 -181 118 -73 192
-125 187 -132 -10 -17 -244 -166 -250 -159 -1 2 -26 37 -55 78 -91 130 -160
211 -285 338 -87 88 -115 122 -97 117 13 -3 81 -31 149 -61z m-3192 -527 c50
-34 122 -81 161 -104 l72 -43 -79 -157 c-133 -268 -196 -441 -304 -828 -14
-50 -59 -259 -70 -325 -21 -122 -45 -294 -50 -345 -2 -33 -7 -82 -10 -110 -20
-190 -21 -631 0 -865 11 -127 24 -248 31 -285 2 -10 6 -37 9 -60 3 -22 8 -51
10 -65 3 -14 7 -38 10 -55 39 -245 153 -646 248 -875 58 -140 67 -160 137
-300 l68 -136 -42 -23 c-57 -33 -204 -129 -248 -163 -23 -18 -43 -26 -50 -22
-51 31 -297 278 -394 394 -257 308 -457 672 -582 1060 -27 82 -56 188 -67 240
-30 143 -45 226 -50 275 -3 33 -8 67 -10 75 -24 91 -24 600 0 740 2 14 6 41 9
60 3 19 7 55 11 80 3 25 17 97 31 160 105 480 323 933 636 1317 125 154 394
422 423 423 6 0 51 -28 100 -63z m3986 26 c153 -127 396 -401 532 -598 128
-187 265 -444 332 -625 9 -25 21 -54 26 -65 28 -64 112 -365 133 -480 27 -143
36 -205 42 -285 3 -36 7 -76 10 -90 5 -28 4 -403 -1 -465 -7 -89 -17 -181 -20
-195 -2 -8 -7 -37 -10 -65 -4 -27 -8 -57 -10 -65 -3 -8 -7 -31 -10 -51 -12
-79 -75 -309 -116 -428 -172 -496 -503 -988 -890 -1324 l-67 -58 -128 87 c-71
47 -146 94 -166 105 -21 11 -38 21 -38 24 0 2 26 55 58 117 152 292 305 733
367 1053 21 110 55 309 60 355 3 30 8 69 10 85 36 248 41 881 10 1100 -2 17
-6 55 -10 85 -6 58 -32 238 -40 280 -3 14 -10 52 -16 85 -33 190 -139 568
-194 700 -7 17 -16 41 -20 55 -4 14 -16 43 -25 65 -10 22 -24 56 -31 74 -8 19
-48 103 -89 185 -41 83 -76 154 -78 157 -2 4 14 17 35 30 74 44 263 172 269
180 10 17 31 9 75 -28z m-3153 -443 c131 -43 283 -86 377 -105 75 -16 184 -35
229 -40 27 -4 58 -9 70 -11 132 -25 679 -25 811 0 11 2 49 7 85 11 36 4 68 9
71 11 6 3 31 8 100 18 146 22 479 126 679 213 69 29 129 55 133 56 12 3 89
-144 157 -298 134 -302 252 -711 296 -1020 3 -27 8 -59 10 -70 5 -24 22 -161
29 -230 19 -191 25 -563 11 -790 -4 -71 -9 -136 -11 -145 -1 -8 -6 -46 -10
-85 -4 -38 -9 -77 -10 -86 -2 -9 -6 -40 -10 -70 -4 -30 -8 -56 -10 -59 -2 -3
-6 -27 -9 -55 -4 -27 -11 -68 -16 -90 -5 -22 -12 -56 -15 -75 -28 -163 -134
-510 -220 -719 -53 -131 -176 -381 -187 -381 -4 0 -36 13 -70 29 -213 97 -505
193 -723 237 -67 14 -188 34 -235 40 -30 4 -66 8 -80 10 -256 33 -639 22 -920
-27 -293 -50 -581 -138 -839 -255 -40 -19 -78 -34 -83 -34 -12 0 -154 294
-201 415 -71 183 -145 414 -173 540 -2 11 -6 29 -8 40 -43 196 -55 257 -60
295 -3 25 -8 56 -10 70 -9 53 -20 131 -31 225 -13 122 -20 277 -20 500 0 226
9 467 19 484 2 3 7 42 10 85 4 43 8 82 10 85 2 3 7 34 10 68 4 35 8 68 11 75
2 7 6 29 9 48 36 234 144 612 247 861 48 117 160 351 180 375 7 9 43 -3 128
-42 66 -29 186 -76 269 -104z m1232 -3924 c85 -3 173 -8 195 -11 92 -12 243
-37 285 -46 25 -6 54 -13 65 -15 50 -11 65 -14 150 -38 164 -45 466 -158 499
-187 20 -18 -148 -234 -300 -385 -226 -225 -479 -375 -739 -440 -16 -4 -32 -8
-35 -9 -3 -1 -30 -5 -60 -9 -30 -5 -64 -10 -75 -12 -30 -6 -246 -5 -280 1
-192 34 -294 65 -424 128 -174 84 -320 193 -491 366 -104 104 -299 346 -288
356 11 12 247 107 353 143 103 35 312 91 395 106 14 2 36 7 50 10 14 3 41 7
60 10 99 13 137 18 160 22 14 2 81 7 150 10 69 4 126 8 128 9 1 1 12 1 25 -1
12 -2 92 -5 177 -8z m-1666 -474 c86 -124 176 -232 296 -354 69 -71 116 -125
105 -122 -80 25 -326 141 -455 215 -93 53 -240 151 -240 159 0 10 230 160 245
160 6 0 28 -26 49 -58z m3169 12 c116 -74 166 -109 167 -114 0 -7 -172 -119
-259 -168 -127 -71 -429 -212 -455 -212 -2 0 46 51 108 113 117 118 193 208
291 345 32 45 63 82 68 82 4 0 41 -21 80 -46z"/>
<path d="M558 3728 c-101 -20 -120 -166 -27 -214 21 -10 65 -14 169 -14 153 0
183 8 214 54 9 14 16 44 16 67 0 33 -6 47 -34 75 -19 19 -42 34 -52 35 -86 4
-259 3 -286 -3z"/>
<path d="M5911 3723 c-39 -13 -70 -47 -72 -78 -1 -11 -3 -27 -4 -35 -3 -29 38
-89 68 -100 48 -16 293 -13 331 5 73 35 86 129 27 186 -19 18 -42 29 -61 30
-157 5 -259 2 -289 -8z"/>
<path d="M1696 3718 c-81 -42 -79 -162 5 -205 19 -10 386 -13 1682 -13 1798 0
1693 -3 1731 52 9 12 16 42 16 66 0 37 -6 50 -34 78 -24 24 -44 34 -68 35 -18
1 -768 2 -1666 2 -1518 2 -1635 1 -1666 -15z"/>
</g>
</svg>
